<svg class="diagram-root" style="background: #f5f6f6" xmlns="http://www.w3.org/2000/svg" xmlns:xlink="http://www.w3.org/1999/xlink"><style>.diagram-root { font-family: "Helvetica Neue", sans-serif; font-size: 12px; } .t { overflow: visible; } .t-bg { y: 40; fill: #fff;   } .th { fill: #005aa0;   } .tht { fill: #fff; font-size: 14px;  } .tf { fill: #323c46; overflow: visible; } .tf.pk { fill: #005aa0; font-weight: bold; } .tf.fk { font-weight: bold; } .ty { fill: #adb1b5; font-weight: normal; text-anchor: end; } .r { fill: transparent; stroke: #c3c3c3; stroke-width: 1; } .l { stroke: 1; } .i { fill: #c2c7ce; stroke: #c2c7ce; } .i.ix { fill: #afb3b6; stroke: #000; } .fa { fill: transparent; overflow: visible; } .fa .bg.hover { fill: #f7f7f7; } .c { cy: 12; r: 4; stroke: #d2d2dc; fill: #d2d2dc; } .hr { fill: transparent; stroke: #323c46; stroke-opacity: 0.035; stroke-width: 13; } .dc { stroke: #fa5a3c; fill: #fa5a3c; } .x { stroke: white; stroke-width: 1; } .hl .th { fill: #1b9bff; } .hl .tht {  } .fhl .bg { fill: #e7f4ff; } .fhls .bg {  } .r.hl { stroke: #1b9bff; } .dim { opacity: 0.25; }</style><g class="drawing-wrapper" transform="translate(-64.28571428571435, 364) scale(1,1)"><g class="rs"><path d="M 327.39 45.82 m -1, 0 a 1,1 0 1,0 2,0 a 1,1 0 1,0 -2,0 M 327.39 45.82 m -0.5, 0 a 0.5,0.5 0 1,0 1,0 a 0.5,0.5 0 1,0 -1,0  M327.39 45.82 L327.39 45.82 315.39 45.82 M 327.39 51.82 m -1, 0 a 1,1 0 1,0 2,0 a 1,1 0 1,0 -2,0 M 327.39 51.82 m -0.5, 0 a 0.5,0.5 0 1,0 1,0 a 0.5,0.5 0 1,0 -1,0  M327.39 51.82 L327.39 51.82 320.39 45.82 327.39 39.82 M 327.39 39.82 m -1, 0 a 1,1 0 1,0 2,0 a 1,1 0 1,0 -2,0 M 327.39 39.82 m -0.5, 0 a 0.5,0.5 0 1,0 1,0 a 0.5,0.5 0 1,0 -1,0  M315.39 45.82 Q 295.12 45.82, 274.85 43.84 T 234.31 41.86 M 222.31 41.86 m -1, 0 a 1,1 0 1,0 2,0 a 1,1 0 1,0 -2,0 M 222.31 41.86 m -0.5, 0 a 0.5,0.5 0 1,0 1,0 a 0.5,0.5 0 1,0 -1,0  M222.31 41.86 L222.31 41.86 234.31 41.86 M228.31 47.86 L228.31 47.86 228.31 35.86" id="h2094269083" class="r"></path><path d="M 524 21.5 m -1, 0 a 1,1 0 1,0 2,0 a 1,1 0 1,0 -2,0 M 524 21.5 m -0.5, 0 a 0.5,0.5 0 1,0 1,0 a 0.5,0.5 0 1,0 -1,0  M524 21.5 L524 21.5 512 21.5 M 524 27.5 m -1, 0 a 1,1 0 1,0 2,0 a 1,1 0 1,0 -2,0 M 524 27.5 m -0.5, 0 a 0.5,0.5 0 1,0 1,0 a 0.5,0.5 0 1,0 -1,0  M524 27.5 L524 27.5 517 21.5 524 15.5 M 524 15.5 m -1, 0 a 1,1 0 1,0 2,0 a 1,1 0 1,0 -2,0 M 524 15.5 m -0.5, 0 a 0.5,0.5 0 1,0 1,0 a 0.5,0.5 0 1,0 -1,0  M512 21.5 Q 495.19 21.5, 478.38 21.16 T 444.75 20.82 M 432.75 20.82 m -1, 0 a 1,1 0 1,0 2,0 a 1,1 0 1,0 -2,0 M 432.75 20.82 m -0.5, 0 a 0.5,0.5 0 1,0 1,0 a 0.5,0.5 0 1,0 -1,0  M432.75 20.82 L432.75 20.82 444.75 20.82 M438.75 26.82 L438.75 26.82 438.75 14.82" id="h1846232057" class="r"></path><path d="M 913.58 -180.32999999999998 m -1, 0 a 1,1 0 1,0 2,0 a 1,1 0 1,0 -2,0 M 913.58 -180.32999999999998 m -0.5, 0 a 0.5,0.5 0 1,0 1,0 a 0.5,0.5 0 1,0 -1,0  M913.58 -180.32999999999998 L913.58 -180.32999999999998 901.58 -180.32999999999998 M907.58 -174.32999999999998 L907.58 -174.32999999999998 907.58 -186.32999999999998 M901.58 -180.32999999999998 Q 845.7 -180.32999999999998, 789.82 -91.91 T 678.06 -3.5 M 666.06 -3.5 m -1, 0 a 1,1 0 1,0 2,0 a 1,1 0 1,0 -2,0 M 666.06 -3.5 m -0.5, 0 a 0.5,0.5 0 1,0 1,0 a 0.5,0.5 0 1,0 -1,0  M666.06 -3.5 L666.06 -3.5 678.06 -3.5 M672.06 2.5 L672.06 2.5 672.06 -9.5" id="h2052836360" class="r"></path><path d="M 908.75 -5.5 m -1, 0 a 1,1 0 1,0 2,0 a 1,1 0 1,0 -2,0 M 908.75 -5.5 m -0.5, 0 a 0.5,0.5 0 1,0 1,0 a 0.5,0.5 0 1,0 -1,0  M908.75 -5.5 L908.75 -5.5 896.75 -5.5 M902.75 0.5 L902.75 0.5 902.75 -11.5 M896.75 -5.5 Q 842.08 -5.5, 787.41 -4.5 T 678.06 -3.5 M 666.06 -3.5 m -1, 0 a 1,1 0 1,0 2,0 a 1,1 0 1,0 -2,0 M 666.06 -3.5 m -0.5, 0 a 0.5,0.5 0 1,0 1,0 a 0.5,0.5 0 1,0 -1,0  M666.06 -3.5 L666.06 -3.5 678.06 -3.5 M672.06 2.5 L672.06 2.5 672.06 -9.5" id="h1143903052" class="r"></path><path d="M 910 432 m -1, 0 a 1,1 0 1,0 2,0 a 1,1 0 1,0 -2,0 M 910 432 m -0.5, 0 a 0.5,0.5 0 1,0 1,0 a 0.5,0.5 0 1,0 -1,0  M910 432 L910 432 898 432 M904 438 L904 438 904 426 M898 432 Q 843.02 432, 788.03 214.25 T 678.06 -3.5 M 666.06 -3.5 m -1, 0 a 1,1 0 1,0 2,0 a 1,1 0 1,0 -2,0 M 666.06 -3.5 m -0.5, 0 a 0.5,0.5 0 1,0 1,0 a 0.5,0.5 0 1,0 -1,0  M666.06 -3.5 L666.06 -3.5 678.06 -3.5 M672.06 2.5 L672.06 2.5 672.06 -9.5" id="h2394235323" class="r"></path><path d="M 1053.81 229.56 m -1, 0 a 1,1 0 1,0 2,0 a 1,1 0 1,0 -2,0 M 1053.81 229.56 m -0.5, 0 a 0.5,0.5 0 1,0 1,0 a 0.5,0.5 0 1,0 -1,0  M1053.81 229.56 L1053.81 229.56 1065.81 229.56 M 1053.81 235.56 m -1, 0 a 1,1 0 1,0 2,0 a 1,1 0 1,0 -2,0 M 1053.81 235.56 m -0.5, 0 a 0.5,0.5 0 1,0 1,0 a 0.5,0.5 0 1,0 -1,0  M1053.81 235.56 L1053.81 235.56 1060.81 229.56 1053.81 223.56 M 1053.81 223.56 m -1, 0 a 1,1 0 1,0 2,0 a 1,1 0 1,0 -2,0 M 1053.81 223.56 m -0.5, 0 a 0.5,0.5 0 1,0 1,0 a 0.5,0.5 0 1,0 -1,0  M1065.81 229.56 C 1115.81 229.56, 1122.0259999999998 -80.5, 1055.45 -80.5 M 1043.45 -80.5 m -1, 0 a 1,1 0 1,0 2,0 a 1,1 0 1,0 -2,0 M 1043.45 -80.5 m -0.5, 0 a 0.5,0.5 0 1,0 1,0 a 0.5,0.5 0 1,0 -1,0  M1043.45 -80.5 L1043.45 -80.5 1055.45 -80.5 M1049.45 -74.5 L1049.45 -74.5 1049.45 -86.5" id="h2732006785" class="r"></path><path d="M 897.08 254.56 m -1, 0 a 1,1 0 1,0 2,0 a 1,1 0 1,0 -2,0 M 897.08 254.56 m -0.5, 0 a 0.5,0.5 0 1,0 1,0 a 0.5,0.5 0 1,0 -1,0  M897.08 254.56 L897.08 254.56 885.08 254.56 M891.08 260.56 L891.08 260.56 891.08 248.56 M885.08 254.56 C 850.6628208270605 254.56, 842.9108208270605 357, 898 357 M 910 357 m -1, 0 a 1,1 0 1,0 2,0 a 1,1 0 1,0 -2,0 M 910 357 m -0.5, 0 a 0.5,0.5 0 1,0 1,0 a 0.5,0.5 0 1,0 -1,0  M910 357 L910 357 898 357 M 910 363 m -1, 0 a 1,1 0 1,0 2,0 a 1,1 0 1,0 -2,0 M 910 363 m -0.5, 0 a 0.5,0.5 0 1,0 1,0 a 0.5,0.5 0 1,0 -1,0  M910 363 L910 363 903 357 910 351 M 910 351 m -1, 0 a 1,1 0 1,0 2,0 a 1,1 0 1,0 -2,0 M 910 351 m -0.5, 0 a 0.5,0.5 0 1,0 1,0 a 0.5,0.5 0 1,0 -1,0 " id="h4104956202" class="r"></path><path d="M 1214.08 -67.91999999999999 m -1, 0 a 1,1 0 1,0 2,0 a 1,1 0 1,0 -2,0 M 1214.08 -67.91999999999999 m -0.5, 0 a 0.5,0.5 0 1,0 1,0 a 0.5,0.5 0 1,0 -1,0  M1214.08 -67.91999999999999 L1214.08 -67.91999999999999 1202.08 -67.91999999999999 M 1214.08 -61.91999999999999 m -1, 0 a 1,1 0 1,0 2,0 a 1,1 0 1,0 -2,0 M 1214.08 -61.91999999999999 m -0.5, 0 a 0.5,0.5 0 1,0 1,0 a 0.5,0.5 0 1,0 -1,0  M1214.08 -61.91999999999999 L1214.08 -61.91999999999999 1207.08 -67.91999999999999 1214.08 -73.91999999999999 M 1214.08 -73.91999999999999 m -1, 0 a 1,1 0 1,0 2,0 a 1,1 0 1,0 -2,0 M 1214.08 -73.91999999999999 m -0.5, 0 a 0.5,0.5 0 1,0 1,0 a 0.5,0.5 0 1,0 -1,0  M1202.08 -67.91999999999999 Q 1165.42 -67.91999999999999, 1128.76 -74.21 T 1055.45 -80.5 M 1043.45 -80.5 m -1, 0 a 1,1 0 1,0 2,0 a 1,1 0 1,0 -2,0 M 1043.45 -80.5 m -0.5, 0 a 0.5,0.5 0 1,0 1,0 a 0.5,0.5 0 1,0 -1,0  M1043.45 -80.5 L1043.45 -80.5 1055.45 -80.5 M 1043.45 -74.5 m -1, 0 a 1,1 0 1,0 2,0 a 1,1 0 1,0 -2,0 M 1043.45 -74.5 m -0.5, 0 a 0.5,0.5 0 1,0 1,0 a 0.5,0.5 0 1,0 -1,0  M1043.45 -74.5 L1043.45 -74.5 1050.45 -80.5 1043.45 -86.5 M 1043.45 -86.5 m -1, 0 a 1,1 0 1,0 2,0 a 1,1 0 1,0 -2,0 M 1043.45 -86.5 m -0.5, 0 a 0.5,0.5 0 1,0 1,0 a 0.5,0.5 0 1,0 -1,0 " id="h2299896268" class="r"></path><path d="M 1328.79 -42.91999999999999 m -1, 0 a 1,1 0 1,0 2,0 a 1,1 0 1,0 -2,0 M 1328.79 -42.91999999999999 m -0.5, 0 a 0.5,0.5 0 1,0 1,0 a 0.5,0.5 0 1,0 -1,0  M1328.79 -42.91999999999999 L1328.79 -42.91999999999999 1340.79 -42.91999999999999 M 1328.79 -36.91999999999999 m -1, 0 a 1,1 0 1,0 2,0 a 1,1 0 1,0 -2,0 M 1328.79 -36.91999999999999 m -0.5, 0 a 0.5,0.5 0 1,0 1,0 a 0.5,0.5 0 1,0 -1,0  M1328.79 -36.91999999999999 L1328.79 -36.91999999999999 1335.79 -42.91999999999999 1328.79 -48.91999999999999 M 1328.79 -48.91999999999999 m -1, 0 a 1,1 0 1,0 2,0 a 1,1 0 1,0 -2,0 M 1328.79 -48.91999999999999 m -0.5, 0 a 0.5,0.5 0 1,0 1,0 a 0.5,0.5 0 1,0 -1,0  M1340.79 -42.91999999999999 Q 1377.72 -42.91999999999999, 1414.65 -44.08 T 1488.5 -45.25 M 1500.5 -45.25 m -1, 0 a 1,1 0 1,0 2,0 a 1,1 0 1,0 -2,0 M 1500.5 -45.25 m -0.5, 0 a 0.5,0.5 0 1,0 1,0 a 0.5,0.5 0 1,0 -1,0  M1500.5 -45.25 L1500.5 -45.25 1488.5 -45.25 M 1500.5 -39.25 m -1, 0 a 1,1 0 1,0 2,0 a 1,1 0 1,0 -2,0 M 1500.5 -39.25 m -0.5, 0 a 0.5,0.5 0 1,0 1,0 a 0.5,0.5 0 1,0 -1,0  M1500.5 -39.25 L1500.5 -39.25 1493.5 -45.25 1500.5 -51.25 M 1500.5 -51.25 m -1, 0 a 1,1 0 1,0 2,0 a 1,1 0 1,0 -2,0 M 1500.5 -51.25 m -0.5, 0 a 0.5,0.5 0 1,0 1,0 a 0.5,0.5 0 1,0 -1,0 " id="h1144939802" class="r"></path><path d="M 1331.36 -252 m -1, 0 a 1,1 0 1,0 2,0 a 1,1 0 1,0 -2,0 M 1331.36 -252 m -0.5, 0 a 0.5,0.5 0 1,0 1,0 a 0.5,0.5 0 1,0 -1,0  M1331.36 -252 L1331.36 -252 1343.36 -252 M 1331.36 -246 m -1, 0 a 1,1 0 1,0 2,0 a 1,1 0 1,0 -2,0 M 1331.36 -246 m -0.5, 0 a 0.5,0.5 0 1,0 1,0 a 0.5,0.5 0 1,0 -1,0  M1331.36 -246 L1331.36 -246 1338.36 -252 1331.36 -258 M 1331.36 -258 m -1, 0 a 1,1 0 1,0 2,0 a 1,1 0 1,0 -2,0 M 1331.36 -258 m -0.5, 0 a 0.5,0.5 0 1,0 1,0 a 0.5,0.5 0 1,0 -1,0  M1343.36 -252 Q 1379.65 -252, 1415.93 -148.62 T 1488.5 -45.25 M 1500.5 -45.25 m -1, 0 a 1,1 0 1,0 2,0 a 1,1 0 1,0 -2,0 M 1500.5 -45.25 m -0.5, 0 a 0.5,0.5 0 1,0 1,0 a 0.5,0.5 0 1,0 -1,0  M1500.5 -45.25 L1500.5 -45.25 1488.5 -45.25 M 1500.5 -39.25 m -1, 0 a 1,1 0 1,0 2,0 a 1,1 0 1,0 -2,0 M 1500.5 -39.25 m -0.5, 0 a 0.5,0.5 0 1,0 1,0 a 0.5,0.5 0 1,0 -1,0  M1500.5 -39.25 L1500.5 -39.25 1493.5 -45.25 1500.5 -51.25 M 1500.5 -51.25 m -1, 0 a 1,1 0 1,0 2,0 a 1,1 0 1,0 -2,0 M 1500.5 -51.25 m -0.5, 0 a 0.5,0.5 0 1,0 1,0 a 0.5,0.5 0 1,0 -1,0 " id="h2453361136" class="r"></path><path d="M 1205.75 -227 m -1, 0 a 1,1 0 1,0 2,0 a 1,1 0 1,0 -2,0 M 1205.75 -227 m -0.5, 0 a 0.5,0.5 0 1,0 1,0 a 0.5,0.5 0 1,0 -1,0  M1205.75 -227 L1205.75 -227 1193.75 -227 M 1205.75 -221 m -1, 0 a 1,1 0 1,0 2,0 a 1,1 0 1,0 -2,0 M 1205.75 -221 m -0.5, 0 a 0.5,0.5 0 1,0 1,0 a 0.5,0.5 0 1,0 -1,0  M1205.75 -221 L1205.75 -221 1198.75 -227 1205.75 -233 M 1205.75 -233 m -1, 0 a 1,1 0 1,0 2,0 a 1,1 0 1,0 -2,0 M 1205.75 -233 m -0.5, 0 a 0.5,0.5 0 1,0 1,0 a 0.5,0.5 0 1,0 -1,0  M1193.75 -227 Q 1160.38 -227, 1127.01 -241.16 T 1060.28 -255.32999999999998 M 1048.28 -255.32999999999998 m -1, 0 a 1,1 0 1,0 2,0 a 1,1 0 1,0 -2,0 M 1048.28 -255.32999999999998 m -0.5, 0 a 0.5,0.5 0 1,0 1,0 a 0.5,0.5 0 1,0 -1,0  M1048.28 -255.32999999999998 L1048.28 -255.32999999999998 1060.28 -255.32999999999998 M 1048.28 -249.32999999999998 m -1, 0 a 1,1 0 1,0 2,0 a 1,1 0 1,0 -2,0 M 1048.28 -249.32999999999998 m -0.5, 0 a 0.5,0.5 0 1,0 1,0 a 0.5,0.5 0 1,0 -1,0  M1048.28 -249.32999999999998 L1048.28 -249.32999999999998 1055.28 -255.32999999999998 1048.28 -261.33 M 1048.28 -261.33 m -1, 0 a 1,1 0 1,0 2,0 a 1,1 0 1,0 -2,0 M 1048.28 -261.33 m -0.5, 0 a 0.5,0.5 0 1,0 1,0 a 0.5,0.5 0 1,0 -1,0 " id="h799731037" class="r"></path><path d="M 1211.5 130.5 m -1, 0 a 1,1 0 1,0 2,0 a 1,1 0 1,0 -2,0 M 1211.5 130.5 m -0.5, 0 a 0.5,0.5 0 1,0 1,0 a 0.5,0.5 0 1,0 -1,0  M1211.5 130.5 L1211.5 130.5 1199.5 130.5 M 1211.5 136.5 m -1, 0 a 1,1 0 1,0 2,0 a 1,1 0 1,0 -2,0 M 1211.5 136.5 m -0.5, 0 a 0.5,0.5 0 1,0 1,0 a 0.5,0.5 0 1,0 -1,0  M1211.5 136.5 L1211.5 136.5 1204.5 130.5 1211.5 124.5 M 1211.5 124.5 m -1, 0 a 1,1 0 1,0 2,0 a 1,1 0 1,0 -2,0 M 1211.5 124.5 m -0.5, 0 a 0.5,0.5 0 1,0 1,0 a 0.5,0.5 0 1,0 -1,0  M1199.5 130.5 Q 1166.08 130.5, 1132.66 117.53 T 1065.81 104.56 M 1053.81 104.56 m -1, 0 a 1,1 0 1,0 2,0 a 1,1 0 1,0 -2,0 M 1053.81 104.56 m -0.5, 0 a 0.5,0.5 0 1,0 1,0 a 0.5,0.5 0 1,0 -1,0  M1053.81 104.56 L1053.81 104.56 1065.81 104.56 M 1053.81 110.56 m -1, 0 a 1,1 0 1,0 2,0 a 1,1 0 1,0 -2,0 M 1053.81 110.56 m -0.5, 0 a 0.5,0.5 0 1,0 1,0 a 0.5,0.5 0 1,0 -1,0  M1053.81 110.56 L1053.81 110.56 1060.81 104.56 1053.81 98.56 M 1053.81 98.56 m -1, 0 a 1,1 0 1,0 2,0 a 1,1 0 1,0 -2,0 M 1053.81 98.56 m -0.5, 0 a 0.5,0.5 0 1,0 1,0 a 0.5,0.5 0 1,0 -1,0 " id="h943528763" class="r"></path><path d="M 1326.21 155.5 m -1, 0 a 1,1 0 1,0 2,0 a 1,1 0 1,0 -2,0 M 1326.21 155.5 m -0.5, 0 a 0.5,0.5 0 1,0 1,0 a 0.5,0.5 0 1,0 -1,0  M1326.21 155.5 L1326.21 155.5 1338.21 155.5 M 1326.21 161.5 m -1, 0 a 1,1 0 1,0 2,0 a 1,1 0 1,0 -2,0 M 1326.21 161.5 m -0.5, 0 a 0.5,0.5 0 1,0 1,0 a 0.5,0.5 0 1,0 -1,0  M1326.21 161.5 L1326.21 161.5 1333.21 155.5 1326.21 149.5 M 1326.21 149.5 m -1, 0 a 1,1 0 1,0 2,0 a 1,1 0 1,0 -2,0 M 1326.21 149.5 m -0.5, 0 a 0.5,0.5 0 1,0 1,0 a 0.5,0.5 0 1,0 -1,0  M1338.21 155.5 Q 1375.79 155.5, 1413.36 55.13 T 1488.5 -45.25 M 1500.5 -45.25 m -1, 0 a 1,1 0 1,0 2,0 a 1,1 0 1,0 -2,0 M 1500.5 -45.25 m -0.5, 0 a 0.5,0.5 0 1,0 1,0 a 0.5,0.5 0 1,0 -1,0  M1500.5 -45.25 L1500.5 -45.25 1488.5 -45.25 M 1500.5 -39.25 m -1, 0 a 1,1 0 1,0 2,0 a 1,1 0 1,0 -2,0 M 1500.5 -39.25 m -0.5, 0 a 0.5,0.5 0 1,0 1,0 a 0.5,0.5 0 1,0 -1,0  M1500.5 -39.25 L1500.5 -39.25 1493.5 -45.25 1500.5 -51.25 M 1500.5 -51.25 m -1, 0 a 1,1 0 1,0 2,0 a 1,1 0 1,0 -2,0 M 1500.5 -51.25 m -0.5, 0 a 0.5,0.5 0 1,0 1,0 a 0.5,0.5 0 1,0 -1,0 " id="h3540133708" class="r"></path></g><g class="hrs"></g><g class="ts"><svg width="136.02" height="125" x="86.29" y="-15.14" id="h1416103745" class="t"><rect height="40" width="136.02" class="th"></rect><text x="13" y="25" class="tht">State</text><rect height="85" width="136.02" class="t-bg"></rect><text x="13" y="61" class="tf pk">id<tspan x="123.02000000000001" class="ty">int</tspan></text><path d="M7,14A2,2 0 0,1 5,12A2,2 0 0,1 7,10A2,2 0 0,1 9,12A2,2 0 0,1 7,14M12.65,10C11.83,7.67 9.61,6 7, 6A6, 6 0 0, 0 1, 12A6, 6 0 0, 0 7, 18C9.61, 18 11.83, 16.33 12.65, 14H17V18H21V14H23V10H12.65Z" class="i pk" transform="translate(90.34617187500001, 48) scale(0.65)"></path><text x="13" y="86" class="tf">name<tspan x="123.02000000000001" class="ty">string</tspan></text><text x="13" y="111" class="tf">acronym<tspan x="123.02000000000001" class="ty">string(2)</tspan></text></svg><svg width="105.36" height="125" x="327.39" y="-36.18" id="h2861865735" class="t"><rect height="40" width="105.36" class="th"></rect><text x="13" y="25" class="tht">City</text><rect height="85" width="105.36" class="t-bg"></rect><text x="13" y="61" class="tf pk">id<tspan x="92.36" class="ty">int</tspan></text><path d="M7,14A2,2 0 0,1 5,12A2,2 0 0,1 7,10A2,2 0 0,1 9,12A2,2 0 0,1 7,14M12.65,10C11.83,7.67 9.61,6 7, 6A6, 6 0 0, 0 1, 12A6, 6 0 0, 0 7, 18C9.61, 18 11.83, 16.33 12.65, 14H17V18H21V14H23V10H12.65Z" class="i pk" transform="translate(59.686171875, 48) scale(0.65)"></path><text x="13" y="86" class="tf fk">state_id</text><text x="13" y="111" class="tf">name<tspan x="92.36" class="ty">string</tspan></text></svg><svg width="142.06" height="250" x="524" y="-60.5" id="h1446055005" class="t"><rect height="40" width="142.06" class="th"></rect><text x="13" y="25" class="tht">Address</text><rect height="210" width="142.06" class="t-bg"></rect><text x="13" y="61" class="tf pk">id<tspan x="129.06" class="ty">int</tspan></text><path d="M7,14A2,2 0 0,1 5,12A2,2 0 0,1 7,10A2,2 0 0,1 9,12A2,2 0 0,1 7,14M12.65,10C11.83,7.67 9.61,6 7, 6A6, 6 0 0, 0 1, 12A6, 6 0 0, 0 7, 18C9.61, 18 11.83, 16.33 12.65, 14H17V18H21V14H23V10H12.65Z" class="i pk" transform="translate(96.386171875, 48) scale(0.65)"></path><text x="13" y="86" class="tf fk">city_id<tspan x="129.06" class="ty">int</tspan></text><text x="13" y="111" class="tf">name<tspan x="129.06" class="ty">string</tspan></text><text x="13" y="136" class="tf">public_place<tspan x="129.06" class="ty">string</tspan></text><text x="13" y="161" class="tf">number<tspan x="129.06" class="ty">string(15)</tspan></text><text x="13" y="186" class="tf">zip_code<tspan x="129.06" class="ty">string(8)</tspan></text><text x="13" y="211" class="tf">reference<tspan x="129.06" class="ty">string</tspan></text><text x="13" y="236" class="tf">complement<tspan x="129.06" class="ty">string</tspan></text></svg><svg width="134.7" height="150" x="913.58" y="-312.33" id="h1909057148" class="t"><rect height="40" width="134.7" class="th"></rect><text x="13" y="25" class="tht">Supplier</text><rect height="110" width="134.7" class="t-bg"></rect><text x="13" y="61" class="tf pk">id<tspan x="121.69999999999999" class="ty">int</tspan></text><path d="M7,14A2,2 0 0,1 5,12A2,2 0 0,1 7,10A2,2 0 0,1 9,12A2,2 0 0,1 7,14M12.65,10C11.83,7.67 9.61,6 7, 6A6, 6 0 0, 0 1, 12A6, 6 0 0, 0 7, 18C9.61, 18 11.83, 16.33 12.65, 14H17V18H21V14H23V10H12.65Z" class="i pk" transform="translate(89.02617187499999, 48) scale(0.65)"></path><text x="13" y="86" class="tf">name<tspan x="121.69999999999999" class="ty">string</tspan></text><text x="13" y="111" class="tf">cnpj<tspan x="121.69999999999999" class="ty">string(14)</tspan></text><path d="M22,18V22H18V19H15V16H12L9.74,13.74C9.19,13.91 8.61,14 8,14A6,6 0 0,1 2,8A6,6 0 0,1 8,2A6,6 0 0,1 14,8C14,8.61 13.91, 9.19 13.74, 9.74L22, 18M7, 5A2, 2 0 0, 0 5, 7A2, 2 0 0, 0 7, 9A2, 2 0 0, 0 9, 7A2, 2 0 0, 0 7, 5Z" class="i uq" transform="translate(55.01640624999999, 100.5) scale(0.5)"></path><text x="13" y="136" class="tf fk">address_id<tspan x="121.69999999999999" class="ty">int</tspan></text></svg><svg width="134.7" height="150" x="908.75" y="-137.5" id="h2270756638" class="t"><rect height="40" width="134.7" class="th"></rect><text x="13" y="25" class="tht">Store</text><rect height="110" width="134.7" class="t-bg"></rect><text x="13" y="61" class="tf pk">id<tspan x="121.69999999999999" class="ty">int</tspan></text><path d="M7,14A2,2 0 0,1 5,12A2,2 0 0,1 7,10A2,2 0 0,1 9,12A2,2 0 0,1 7,14M12.65,10C11.83,7.67 9.61,6 7, 6A6, 6 0 0, 0 1, 12A6, 6 0 0, 0 7, 18C9.61, 18 11.83, 16.33 12.65, 14H17V18H21V14H23V10H12.65Z" class="i pk" transform="translate(89.02617187499999, 48) scale(0.65)"></path><text x="13" y="86" class="tf">name<tspan x="121.69999999999999" class="ty">string</tspan></text><text x="13" y="111" class="tf">cnpj<tspan x="121.69999999999999" class="ty">string(14)</tspan></text><path d="M22,18V22H18V19H15V16H12L9.74,13.74C9.19,13.91 8.61,14 8,14A6,6 0 0,1 2,8A6,6 0 0,1 8,2A6,6 0 0,1 14,8C14,8.61 13.91, 9.19 13.74, 9.74L22, 18M7, 5A2, 2 0 0, 0 5, 7A2, 2 0 0, 0 7, 9A2, 2 0 0, 0 9, 7A2, 2 0 0, 0 7, 5Z" class="i uq" transform="translate(55.01640624999999, 100.5) scale(0.5)"></path><text x="13" y="136" class="tf fk">address_id<tspan x="121.69999999999999" class="ty">int</tspan></text></svg><svg width="127.8" height="150" x="910" y="300" id="h1304670300" class="t"><rect height="40" width="127.8" class="th"></rect><text x="13" y="25" class="tht">Customer</text><rect height="110" width="127.8" class="t-bg"></rect><text x="13" y="61" class="tf pk">id<tspan x="114.8" class="ty">int</tspan></text><path d="M7,14A2,2 0 0,1 5,12A2,2 0 0,1 7,10A2,2 0 0,1 9,12A2,2 0 0,1 7,14M12.65,10C11.83,7.67 9.61,6 7, 6A6, 6 0 0, 0 1, 12A6, 6 0 0, 0 7, 18C9.61, 18 11.83, 16.33 12.65, 14H17V18H21V14H23V10H12.65Z" class="i pk" transform="translate(82.126171875, 48) scale(0.65)"></path><text x="13" y="86" class="tf">name<tspan x="114.8" class="ty">string</tspan></text><text x="13" y="111" class="tf">cpf<tspan x="114.8" class="ty">string(11)</tspan></text><path d="M22,18V22H18V19H15V16H12L9.74,13.74C9.19,13.91 8.61,14 8,14A6,6 0 0,1 2,8A6,6 0 0,1 8,2A6,6 0 0,1 14,8C14,8.61 13.91, 9.19 13.74, 9.74L22, 18M7, 5A2, 2 0 0, 0 5, 7A2, 2 0 0, 0 7, 9A2, 2 0 0, 0 9, 7A2, 2 0 0, 0 7, 5Z" class="i uq" transform="translate(49.00703125, 100.5) scale(0.5)"></path><text x="13" y="136" class="tf fk">address_id<tspan x="114.8" class="ty">int</tspan></text></svg><svg width="123.37" height="150" x="1500.5" y="-102.25" id="h3119304962" class="t"><rect height="40" width="123.37" class="th"></rect><text x="13" y="25" class="tht">Product</text><rect height="110" width="123.37" class="t-bg"></rect><text x="13" y="61" class="tf pk">id<tspan x="110.37" class="ty">int</tspan></text><path d="M7,14A2,2 0 0,1 5,12A2,2 0 0,1 7,10A2,2 0 0,1 9,12A2,2 0 0,1 7,14M12.65,10C11.83,7.67 9.61,6 7, 6A6, 6 0 0, 0 1, 12A6, 6 0 0, 0 7, 18C9.61, 18 11.83, 16.33 12.65, 14H17V18H21V14H23V10H12.65Z" class="i pk" transform="translate(77.696171875, 48) scale(0.65)"></path><text x="13" y="86" class="tf">name<tspan x="110.37" class="ty">string</tspan></text><text x="13" y="111" class="tf">price<tspan x="110.37" class="ty">decimal</tspan></text><text x="13" y="136" class="tf">description<tspan x="110.37" class="ty">text</tspan></text></svg><svg width="156.73" height="225" x="897.08" y="47.56" id="h1606516778" class="t"><rect height="40" width="156.73" class="th"></rect><text x="13" y="25" class="tht">Sale</text><rect height="185" width="156.73" class="t-bg"></rect><text x="13" y="61" class="tf pk">id<tspan x="143.73" class="ty">int</tspan></text><path d="M7,14A2,2 0 0,1 5,12A2,2 0 0,1 7,10A2,2 0 0,1 9,12A2,2 0 0,1 7,14M12.65,10C11.83,7.67 9.61,6 7, 6A6, 6 0 0, 0 1, 12A6, 6 0 0, 0 7, 18C9.61, 18 11.83, 16.33 12.65, 14H17V18H21V14H23V10H12.65Z" class="i pk" transform="translate(111.05617187499999, 48) scale(0.65)"></path><text x="13" y="86" class="tf">invoice<tspan x="143.73" class="ty">int</tspan></text><path d="M22,18V22H18V19H15V16H12L9.74,13.74C9.19,13.91 8.61,14 8,14A6,6 0 0,1 2,8A6,6 0 0,1 8,2A6,6 0 0,1 14,8C14,8.61 13.91, 9.19 13.74, 9.74L22, 18M7, 5A2, 2 0 0, 0 5, 7A2, 2 0 0, 0 7, 9A2, 2 0 0, 0 9, 7A2, 2 0 0, 0 7, 5Z" class="i uq" transform="translate(115.05617187499999, 75.5) scale(0.5)"></path><text x="13" y="111" class="tf">finished_at<tspan x="143.73" class="ty">datetime</tspan></text><text x="13" y="136" class="tf">total_amount<tspan x="143.73" class="ty">decimal</tspan></text><text x="13" y="161" class="tf">finished<tspan x="143.73" class="ty">boolean</tspan></text><text x="13" y="186" class="tf fk">store_id<tspan x="143.73" class="ty">int</tspan></text><text x="13" y="211" class="tf fk">customer_id<tspan x="143.73" class="ty">int</tspan></text></svg><svg width="114.71" height="150" x="1214.08" y="-149.92" id="h56947198" class="t"><rect height="40" width="114.71" class="th"></rect><text x="13" y="25" class="tht">StoreProduct</text><rect height="110" width="114.71" class="t-bg"></rect><text x="13" y="61" class="tf pk">id<tspan x="101.71" class="ty">int</tspan></text><path d="M7,14A2,2 0 0,1 5,12A2,2 0 0,1 7,10A2,2 0 0,1 9,12A2,2 0 0,1 7,14M12.65,10C11.83,7.67 9.61,6 7, 6A6, 6 0 0, 0 1, 12A6, 6 0 0, 0 7, 18C9.61, 18 11.83, 16.33 12.65, 14H17V18H21V14H23V10H12.65Z" class="i pk" transform="translate(69.036171875, 48) scale(0.65)"></path><text x="13" y="86" class="tf fk">store_id<tspan x="101.71" class="ty">int</tspan></text><text x="13" y="111" class="tf fk">product_id<tspan x="101.71" class="ty">int</tspan></text><text x="13" y="136" class="tf">amount<tspan x="101.71" class="ty">int</tspan></text></svg><svg width="125.61" height="125" x="1205.75" y="-334" id="h1369060275" class="t"><rect height="40" width="125.61" class="th"></rect><text x="13" y="25" class="tht">ProductSupplier</text><rect height="85" width="125.61" class="t-bg"></rect><text x="13" y="61" class="tf pk">id<tspan x="112.61" class="ty">int</tspan></text><path d="M7,14A2,2 0 0,1 5,12A2,2 0 0,1 7,10A2,2 0 0,1 9,12A2,2 0 0,1 7,14M12.65,10C11.83,7.67 9.61,6 7, 6A6, 6 0 0, 0 1, 12A6, 6 0 0, 0 7, 18C9.61, 18 11.83, 16.33 12.65, 14H17V18H21V14H23V10H12.65Z" class="i pk" transform="translate(79.936171875, 48) scale(0.65)"></path><text x="13" y="86" class="tf fk">product_id<tspan x="112.61" class="ty">int</tspan></text><text x="13" y="111" class="tf fk">supplier_id<tspan x="112.61" class="ty">int</tspan></text></svg><svg width="114.71" height="150" x="1211.5" y="48.5" id="h3860667595" class="t"><rect height="40" width="114.71" class="th"></rect><text x="13" y="25" class="tht">SaleProduct</text><rect height="110" width="114.71" class="t-bg"></rect><text x="13" y="61" class="tf pk">id<tspan x="101.71" class="ty">int</tspan></text><path d="M7,14A2,2 0 0,1 5,12A2,2 0 0,1 7,10A2,2 0 0,1 9,12A2,2 0 0,1 7,14M12.65,10C11.83,7.67 9.61,6 7, 6A6, 6 0 0, 0 1, 12A6, 6 0 0, 0 7, 18C9.61, 18 11.83, 16.33 12.65, 14H17V18H21V14H23V10H12.65Z" class="i pk" transform="translate(69.036171875, 48) scale(0.65)"></path><text x="13" y="86" class="tf fk">sale_id<tspan x="101.71" class="ty">int</tspan></text><text x="13" y="111" class="tf fk">product_id<tspan x="101.71" class="ty">int</tspan></text><text x="13" y="136" class="tf">amount<tspan x="101.71" class="ty">int</tspan></text></svg></g></g></svg>