<svg class="diagram-root" style="background: #f5f6f6" xmlns="http://www.w3.org/2000/svg" xmlns:xlink="http://www.w3.org/1999/xlink"><style>.diagram-root { font-family: "Helvetica Neue", sans-serif; font-size: 12px; } .t { overflow: visible; } .t-bg { y: 40; fill: #fff;   } .th { fill: #005aa0;   } .tht { fill: #fff; font-size: 14px;  } .tf { fill: #323c46; overflow: visible; } .tf.pk { fill: #005aa0; font-weight: bold; } .tf.fk { font-weight: bold; } .ty { fill: #adb1b5; font-weight: normal; text-anchor: end; } .r { fill: transparent; stroke: #c3c3c3; stroke-width: 1; } .l { stroke: 1; } .i { fill: #c2c7ce; stroke: #c2c7ce; } .i.ix { fill: #afb3b6; stroke: #000; } .fa { fill: transparent; overflow: visible; } .fa .bg.hover { fill: #f7f7f7; } .c { cy: 12; r: 4; stroke: #d2d2dc; fill: #d2d2dc; } .hr { fill: transparent; stroke: #323c46; stroke-opacity: 0.035; stroke-width: 13; } .dc { stroke: #fa5a3c; fill: #fa5a3c; } .x { stroke: white; stroke-width: 1; } .hl .th { fill: #1b9bff; } .hl .tht {  } .fhl .bg { fill: #e7f4ff; } .fhls .bg {  } .r.hl { stroke: #1b9bff; } .dim { opacity: 0.25; }</style><g class="drawing-wrapper" transform="translate(-594.29, 364) scale(1,1)"><g class="rs"><path d="M 629.89 -56.68000000000001 m -1, 0 a 1,1 0 1,0 2,0 a 1,1 0 1,0 -2,0 M 629.89 -56.68000000000001 m -0.5, 0 a 0.5,0.5 0 1,0 1,0 a 0.5,0.5 0 1,0 -1,0  M629.89 -56.68000000000001 L629.89 -56.68000000000001 617.89 -56.68000000000001 M 629.89 -50.68000000000001 m -1, 0 a 1,1 0 1,0 2,0 a 1,1 0 1,0 -2,0 M 629.89 -50.68000000000001 m -0.5, 0 a 0.5,0.5 0 1,0 1,0 a 0.5,0.5 0 1,0 -1,0  M629.89 -50.68000000000001 L629.89 -50.68000000000001 622.89 -56.68000000000001 629.89 -62.68000000000001 M 629.89 -62.68000000000001 m -1, 0 a 1,1 0 1,0 2,0 a 1,1 0 1,0 -2,0 M 629.89 -62.68000000000001 m -0.5, 0 a 0.5,0.5 0 1,0 1,0 a 0.5,0.5 0 1,0 -1,0  M617.89 -56.68000000000001 C 546.13 -56.68000000000001, 554.29 -250.64, 604.29 -250.64 M 616.29 -250.64 m -1, 0 a 1,1 0 1,0 2,0 a 1,1 0 1,0 -2,0 M 616.29 -250.64 m -0.5, 0 a 0.5,0.5 0 1,0 1,0 a 0.5,0.5 0 1,0 -1,0  M616.29 -250.64 L616.29 -250.64 604.29 -250.64 M610.29 -244.64 L610.29 -244.64 610.29 -256.64" id="h2094269083" class="r"></path><path d="M 633.16 97.33 m -1, 0 a 1,1 0 1,0 2,0 a 1,1 0 1,0 -2,0 M 633.16 97.33 m -0.5, 0 a 0.5,0.5 0 1,0 1,0 a 0.5,0.5 0 1,0 -1,0  M633.16 97.33 L633.16 97.33 621.16 97.33 M 633.16 103.33 m -1, 0 a 1,1 0 1,0 2,0 a 1,1 0 1,0 -2,0 M 633.16 103.33 m -0.5, 0 a 0.5,0.5 0 1,0 1,0 a 0.5,0.5 0 1,0 -1,0  M633.16 103.33 L633.16 103.33 626.16 97.33 633.16 91.33 M 633.16 91.33 m -1, 0 a 1,1 0 1,0 2,0 a 1,1 0 1,0 -2,0 M 633.16 91.33 m -0.5, 0 a 0.5,0.5 0 1,0 1,0 a 0.5,0.5 0 1,0 -1,0  M621.16 97.33 C 565.928 97.33, 567.89 -81.68, 617.89 -81.68 M 629.89 -81.68 m -1, 0 a 1,1 0 1,0 2,0 a 1,1 0 1,0 -2,0 M 629.89 -81.68 m -0.5, 0 a 0.5,0.5 0 1,0 1,0 a 0.5,0.5 0 1,0 -1,0  M629.89 -81.68 L629.89 -81.68 617.89 -81.68 M623.89 -75.68 L623.89 -75.68 623.89 -87.68" id="h1846232057" class="r"></path><path d="M 897.08 229.56 m -1, 0 a 1,1 0 1,0 2,0 a 1,1 0 1,0 -2,0 M 897.08 229.56 m -0.5, 0 a 0.5,0.5 0 1,0 1,0 a 0.5,0.5 0 1,0 -1,0  M897.08 229.56 L897.08 229.56 885.08 229.56 M 897.08 235.56 m -1, 0 a 1,1 0 1,0 2,0 a 1,1 0 1,0 -2,0 M 897.08 235.56 m -0.5, 0 a 0.5,0.5 0 1,0 1,0 a 0.5,0.5 0 1,0 -1,0  M897.08 235.56 L897.08 235.56 890.08 229.56 897.08 223.56 M 897.08 223.56 m -1, 0 a 1,1 0 1,0 2,0 a 1,1 0 1,0 -2,0 M 897.08 223.56 m -0.5, 0 a 0.5,0.5 0 1,0 1,0 a 0.5,0.5 0 1,0 -1,0  M885.08 229.56 C 835.08 229.56, 828.0780000000001 -80.5, 896.75 -80.5 M 908.75 -80.5 m -1, 0 a 1,1 0 1,0 2,0 a 1,1 0 1,0 -2,0 M 908.75 -80.5 m -0.5, 0 a 0.5,0.5 0 1,0 1,0 a 0.5,0.5 0 1,0 -1,0  M908.75 -80.5 L908.75 -80.5 896.75 -80.5 M902.75 -74.5 L902.75 -74.5 902.75 -86.5" id="h2732006785" class="r"></path><path d="M 897.08 254.56 m -1, 0 a 1,1 0 1,0 2,0 a 1,1 0 1,0 -2,0 M 897.08 254.56 m -0.5, 0 a 0.5,0.5 0 1,0 1,0 a 0.5,0.5 0 1,0 -1,0  M897.08 254.56 L897.08 254.56 885.08 254.56 M891.08 260.56 L891.08 260.56 891.08 248.56 M885.08 254.56 C 850.6628208270605 254.56, 842.9108208270605 357, 898 357 M 910 357 m -1, 0 a 1,1 0 1,0 2,0 a 1,1 0 1,0 -2,0 M 910 357 m -0.5, 0 a 0.5,0.5 0 1,0 1,0 a 0.5,0.5 0 1,0 -1,0  M910 357 L910 357 898 357 M 910 363 m -1, 0 a 1,1 0 1,0 2,0 a 1,1 0 1,0 -2,0 M 910 363 m -0.5, 0 a 0.5,0.5 0 1,0 1,0 a 0.5,0.5 0 1,0 -1,0  M910 363 L910 363 903 357 910 351 M 910 351 m -1, 0 a 1,1 0 1,0 2,0 a 1,1 0 1,0 -2,0 M 910 351 m -0.5, 0 a 0.5,0.5 0 1,0 1,0 a 0.5,0.5 0 1,0 -1,0 " id="h4104956202" class="r"></path><path d="M 1214.08 -67.91999999999999 m -1, 0 a 1,1 0 1,0 2,0 a 1,1 0 1,0 -2,0 M 1214.08 -67.91999999999999 m -0.5, 0 a 0.5,0.5 0 1,0 1,0 a 0.5,0.5 0 1,0 -1,0  M1214.08 -67.91999999999999 L1214.08 -67.91999999999999 1202.08 -67.91999999999999 M 1214.08 -61.91999999999999 m -1, 0 a 1,1 0 1,0 2,0 a 1,1 0 1,0 -2,0 M 1214.08 -61.91999999999999 m -0.5, 0 a 0.5,0.5 0 1,0 1,0 a 0.5,0.5 0 1,0 -1,0  M1214.08 -61.91999999999999 L1214.08 -61.91999999999999 1207.08 -67.91999999999999 1214.08 -73.91999999999999 M 1214.08 -73.91999999999999 m -1, 0 a 1,1 0 1,0 2,0 a 1,1 0 1,0 -2,0 M 1214.08 -73.91999999999999 m -0.5, 0 a 0.5,0.5 0 1,0 1,0 a 0.5,0.5 0 1,0 -1,0  M1202.08 -67.91999999999999 Q 1166.25 -67.91999999999999, 1130.42 -74.21 T 1058.75 -80.5 M 1046.75 -80.5 m -1, 0 a 1,1 0 1,0 2,0 a 1,1 0 1,0 -2,0 M 1046.75 -80.5 m -0.5, 0 a 0.5,0.5 0 1,0 1,0 a 0.5,0.5 0 1,0 -1,0  M1046.75 -80.5 L1046.75 -80.5 1058.75 -80.5 M 1046.75 -74.5 m -1, 0 a 1,1 0 1,0 2,0 a 1,1 0 1,0 -2,0 M 1046.75 -74.5 m -0.5, 0 a 0.5,0.5 0 1,0 1,0 a 0.5,0.5 0 1,0 -1,0  M1046.75 -74.5 L1046.75 -74.5 1053.75 -80.5 1046.75 -86.5 M 1046.75 -86.5 m -1, 0 a 1,1 0 1,0 2,0 a 1,1 0 1,0 -2,0 M 1046.75 -86.5 m -0.5, 0 a 0.5,0.5 0 1,0 1,0 a 0.5,0.5 0 1,0 -1,0 " id="h2299896268" class="r"></path><path d="M 1331.08 -42.91999999999999 m -1, 0 a 1,1 0 1,0 2,0 a 1,1 0 1,0 -2,0 M 1331.08 -42.91999999999999 m -0.5, 0 a 0.5,0.5 0 1,0 1,0 a 0.5,0.5 0 1,0 -1,0  M1331.08 -42.91999999999999 L1331.08 -42.91999999999999 1343.08 -42.91999999999999 M 1331.08 -36.91999999999999 m -1, 0 a 1,1 0 1,0 2,0 a 1,1 0 1,0 -2,0 M 1331.08 -36.91999999999999 m -0.5, 0 a 0.5,0.5 0 1,0 1,0 a 0.5,0.5 0 1,0 -1,0  M1331.08 -36.91999999999999 L1331.08 -36.91999999999999 1338.08 -42.91999999999999 1331.08 -48.91999999999999 M 1331.08 -48.91999999999999 m -1, 0 a 1,1 0 1,0 2,0 a 1,1 0 1,0 -2,0 M 1331.08 -48.91999999999999 m -0.5, 0 a 0.5,0.5 0 1,0 1,0 a 0.5,0.5 0 1,0 -1,0  M1343.08 -42.91999999999999 Q 1379.44 -42.91999999999999, 1415.79 -44.08 T 1488.5 -45.25 M 1500.5 -45.25 m -1, 0 a 1,1 0 1,0 2,0 a 1,1 0 1,0 -2,0 M 1500.5 -45.25 m -0.5, 0 a 0.5,0.5 0 1,0 1,0 a 0.5,0.5 0 1,0 -1,0  M1500.5 -45.25 L1500.5 -45.25 1488.5 -45.25 M 1500.5 -39.25 m -1, 0 a 1,1 0 1,0 2,0 a 1,1 0 1,0 -2,0 M 1500.5 -39.25 m -0.5, 0 a 0.5,0.5 0 1,0 1,0 a 0.5,0.5 0 1,0 -1,0  M1500.5 -39.25 L1500.5 -39.25 1493.5 -45.25 1500.5 -51.25 M 1500.5 -51.25 m -1, 0 a 1,1 0 1,0 2,0 a 1,1 0 1,0 -2,0 M 1500.5 -51.25 m -0.5, 0 a 0.5,0.5 0 1,0 1,0 a 0.5,0.5 0 1,0 -1,0 " id="h1144939802" class="r"></path><path d="M 1332.75 -252 m -1, 0 a 1,1 0 1,0 2,0 a 1,1 0 1,0 -2,0 M 1332.75 -252 m -0.5, 0 a 0.5,0.5 0 1,0 1,0 a 0.5,0.5 0 1,0 -1,0  M1332.75 -252 L1332.75 -252 1344.75 -252 M 1332.75 -246 m -1, 0 a 1,1 0 1,0 2,0 a 1,1 0 1,0 -2,0 M 1332.75 -246 m -0.5, 0 a 0.5,0.5 0 1,0 1,0 a 0.5,0.5 0 1,0 -1,0  M1332.75 -246 L1332.75 -246 1339.75 -252 1332.75 -258 M 1332.75 -258 m -1, 0 a 1,1 0 1,0 2,0 a 1,1 0 1,0 -2,0 M 1332.75 -258 m -0.5, 0 a 0.5,0.5 0 1,0 1,0 a 0.5,0.5 0 1,0 -1,0  M1344.75 -252 Q 1380.69 -252, 1416.63 -148.62 T 1488.5 -45.25 M 1500.5 -45.25 m -1, 0 a 1,1 0 1,0 2,0 a 1,1 0 1,0 -2,0 M 1500.5 -45.25 m -0.5, 0 a 0.5,0.5 0 1,0 1,0 a 0.5,0.5 0 1,0 -1,0  M1500.5 -45.25 L1500.5 -45.25 1488.5 -45.25 M 1500.5 -39.25 m -1, 0 a 1,1 0 1,0 2,0 a 1,1 0 1,0 -2,0 M 1500.5 -39.25 m -0.5, 0 a 0.5,0.5 0 1,0 1,0 a 0.5,0.5 0 1,0 -1,0  M1500.5 -39.25 L1500.5 -39.25 1493.5 -45.25 1500.5 -51.25 M 1500.5 -51.25 m -1, 0 a 1,1 0 1,0 2,0 a 1,1 0 1,0 -2,0 M 1500.5 -51.25 m -0.5, 0 a 0.5,0.5 0 1,0 1,0 a 0.5,0.5 0 1,0 -1,0 " id="h2453361136" class="r"></path><path d="M 1205.75 -227 m -1, 0 a 1,1 0 1,0 2,0 a 1,1 0 1,0 -2,0 M 1205.75 -227 m -0.5, 0 a 0.5,0.5 0 1,0 1,0 a 0.5,0.5 0 1,0 -1,0  M1205.75 -227 L1205.75 -227 1193.75 -227 M 1205.75 -221 m -1, 0 a 1,1 0 1,0 2,0 a 1,1 0 1,0 -2,0 M 1205.75 -221 m -0.5, 0 a 0.5,0.5 0 1,0 1,0 a 0.5,0.5 0 1,0 -1,0  M1205.75 -221 L1205.75 -221 1198.75 -227 1205.75 -233 M 1205.75 -233 m -1, 0 a 1,1 0 1,0 2,0 a 1,1 0 1,0 -2,0 M 1205.75 -233 m -0.5, 0 a 0.5,0.5 0 1,0 1,0 a 0.5,0.5 0 1,0 -1,0  M1193.75 -227 Q 1161.21 -227, 1128.67 -241.16 T 1063.58 -255.32999999999998 M 1051.58 -255.32999999999998 m -1, 0 a 1,1 0 1,0 2,0 a 1,1 0 1,0 -2,0 M 1051.58 -255.32999999999998 m -0.5, 0 a 0.5,0.5 0 1,0 1,0 a 0.5,0.5 0 1,0 -1,0  M1051.58 -255.32999999999998 L1051.58 -255.32999999999998 1063.58 -255.32999999999998 M 1051.58 -249.32999999999998 m -1, 0 a 1,1 0 1,0 2,0 a 1,1 0 1,0 -2,0 M 1051.58 -249.32999999999998 m -0.5, 0 a 0.5,0.5 0 1,0 1,0 a 0.5,0.5 0 1,0 -1,0  M1051.58 -249.32999999999998 L1051.58 -249.32999999999998 1058.58 -255.32999999999998 1051.58 -261.33 M 1051.58 -261.33 m -1, 0 a 1,1 0 1,0 2,0 a 1,1 0 1,0 -2,0 M 1051.58 -261.33 m -0.5, 0 a 0.5,0.5 0 1,0 1,0 a 0.5,0.5 0 1,0 -1,0 " id="h799731037" class="r"></path><path d="M 1211.5 130.5 m -1, 0 a 1,1 0 1,0 2,0 a 1,1 0 1,0 -2,0 M 1211.5 130.5 m -0.5, 0 a 0.5,0.5 0 1,0 1,0 a 0.5,0.5 0 1,0 -1,0  M1211.5 130.5 L1211.5 130.5 1199.5 130.5 M 1211.5 136.5 m -1, 0 a 1,1 0 1,0 2,0 a 1,1 0 1,0 -2,0 M 1211.5 136.5 m -0.5, 0 a 0.5,0.5 0 1,0 1,0 a 0.5,0.5 0 1,0 -1,0  M1211.5 136.5 L1211.5 136.5 1204.5 130.5 1211.5 124.5 M 1211.5 124.5 m -1, 0 a 1,1 0 1,0 2,0 a 1,1 0 1,0 -2,0 M 1211.5 124.5 m -0.5, 0 a 0.5,0.5 0 1,0 1,0 a 0.5,0.5 0 1,0 -1,0  M1199.5 130.5 Q 1167.4 130.5, 1135.29 117.53 T 1071.08 104.56 M 1059.08 104.56 m -1, 0 a 1,1 0 1,0 2,0 a 1,1 0 1,0 -2,0 M 1059.08 104.56 m -0.5, 0 a 0.5,0.5 0 1,0 1,0 a 0.5,0.5 0 1,0 -1,0  M1059.08 104.56 L1059.08 104.56 1071.08 104.56 M 1059.08 110.56 m -1, 0 a 1,1 0 1,0 2,0 a 1,1 0 1,0 -2,0 M 1059.08 110.56 m -0.5, 0 a 0.5,0.5 0 1,0 1,0 a 0.5,0.5 0 1,0 -1,0  M1059.08 110.56 L1059.08 110.56 1066.08 104.56 1059.08 98.56 M 1059.08 98.56 m -1, 0 a 1,1 0 1,0 2,0 a 1,1 0 1,0 -2,0 M 1059.08 98.56 m -0.5, 0 a 0.5,0.5 0 1,0 1,0 a 0.5,0.5 0 1,0 -1,0 " id="h943528763" class="r"></path><path d="M 1328.5 155.5 m -1, 0 a 1,1 0 1,0 2,0 a 1,1 0 1,0 -2,0 M 1328.5 155.5 m -0.5, 0 a 0.5,0.5 0 1,0 1,0 a 0.5,0.5 0 1,0 -1,0  M1328.5 155.5 L1328.5 155.5 1340.5 155.5 M 1328.5 161.5 m -1, 0 a 1,1 0 1,0 2,0 a 1,1 0 1,0 -2,0 M 1328.5 161.5 m -0.5, 0 a 0.5,0.5 0 1,0 1,0 a 0.5,0.5 0 1,0 -1,0  M1328.5 161.5 L1328.5 161.5 1335.5 155.5 1328.5 149.5 M 1328.5 149.5 m -1, 0 a 1,1 0 1,0 2,0 a 1,1 0 1,0 -2,0 M 1328.5 149.5 m -0.5, 0 a 0.5,0.5 0 1,0 1,0 a 0.5,0.5 0 1,0 -1,0  M1340.5 155.5 Q 1377.5 155.5, 1414.5 55.13 T 1488.5 -45.25 M 1500.5 -45.25 m -1, 0 a 1,1 0 1,0 2,0 a 1,1 0 1,0 -2,0 M 1500.5 -45.25 m -0.5, 0 a 0.5,0.5 0 1,0 1,0 a 0.5,0.5 0 1,0 -1,0  M1500.5 -45.25 L1500.5 -45.25 1488.5 -45.25 M 1500.5 -39.25 m -1, 0 a 1,1 0 1,0 2,0 a 1,1 0 1,0 -2,0 M 1500.5 -39.25 m -0.5, 0 a 0.5,0.5 0 1,0 1,0 a 0.5,0.5 0 1,0 -1,0  M1500.5 -39.25 L1500.5 -39.25 1493.5 -45.25 1500.5 -51.25 M 1500.5 -51.25 m -1, 0 a 1,1 0 1,0 2,0 a 1,1 0 1,0 -2,0 M 1500.5 -51.25 m -0.5, 0 a 0.5,0.5 0 1,0 1,0 a 0.5,0.5 0 1,0 -1,0 " id="h3540133708" class="r"></path></g><g class="hrs"></g><g class="ts"><svg width="139" height="125" x="616.29" y="-307.64" id="h1416103745" class="t"><rect height="40" width="139" class="th"></rect><text x="13" y="25" class="tht">State</text><rect height="85" width="139" class="t-bg" y="40"></rect><text x="13" y="61" class="tf pk">id<tspan x="126" class="ty">int</tspan></text><path d="M7,14A2,2 0 0,1 5,12A2,2 0 0,1 7,10A2,2 0 0,1 9,12A2,2 0 0,1 7,14M12.65,10C11.83,7.67 9.61,6 7, 6A6, 6 0 0, 0 1, 12A6, 6 0 0, 0 7, 18C9.61, 18 11.83, 16.33 12.65, 14H17V18H21V14H23V10H12.65Z" class="i pk" transform="translate(93, 48) scale(0.65)"></path><text x="13" y="86" class="tf">name<tspan x="126" class="ty">string</tspan></text><text x="13" y="111" class="tf">acronym<tspan x="126" class="ty">string(2)</tspan></text></svg><svg width="109" height="125" x="629.89" y="-138.68" id="h2861865735" class="t"><rect height="40" width="109" class="th"></rect><text x="13" y="25" class="tht">City</text><rect height="85" width="109" class="t-bg" y="40"></rect><text x="13" y="61" class="tf pk">id<tspan x="96" class="ty">int</tspan></text><path d="M7,14A2,2 0 0,1 5,12A2,2 0 0,1 7,10A2,2 0 0,1 9,12A2,2 0 0,1 7,14M12.65,10C11.83,7.67 9.61,6 7, 6A6, 6 0 0, 0 1, 12A6, 6 0 0, 0 7, 18C9.61, 18 11.83, 16.33 12.65, 14H17V18H21V14H23V10H12.65Z" class="i pk" transform="translate(63, 48) scale(0.65)"></path><text x="13" y="86" class="tf fk">state_id</text><text x="13" y="111" class="tf">name<tspan x="96" class="ty">string</tspan></text></svg><svg width="158" height="300" x="633.16" y="15.33" id="h1446055005" class="t"><rect height="40" width="158" class="th"></rect><text x="13" y="25" class="tht">Address</text><rect height="260" width="158" class="t-bg" y="40"></rect><text x="13" y="61" class="tf pk">id<tspan x="145" class="ty">int</tspan></text><path d="M7,14A2,2 0 0,1 5,12A2,2 0 0,1 7,10A2,2 0 0,1 9,12A2,2 0 0,1 7,14M12.65,10C11.83,7.67 9.61,6 7, 6A6, 6 0 0, 0 1, 12A6, 6 0 0, 0 7, 18C9.61, 18 11.83, 16.33 12.65, 14H17V18H21V14H23V10H12.65Z" class="i pk" transform="translate(112, 48) scale(0.65)"></path><text x="13" y="86" class="tf fk">city_id<tspan x="145" class="ty">int</tspan></text><text x="13" y="111" class="tf">name<tspan x="145" class="ty">string</tspan></text><text x="13" y="136" class="tf">public_place<tspan x="145" class="ty">string</tspan></text><text x="13" y="161" class="tf">number<tspan x="145" class="ty">string(15)</tspan></text><text x="13" y="186" class="tf">zip_code<tspan x="145" class="ty">string(8)</tspan></text><text x="13" y="211" class="tf">reference<tspan x="145" class="ty">string</tspan></text><text x="13" y="236" class="tf">complement<tspan x="145" class="ty">string</tspan></text><text x="13" y="261" class="tf">addressable_type<tspan x="145" class="ty">int</tspan></text><text x="13" y="286" class="tf">addressable_id<tspan x="145" class="ty">int</tspan></text></svg><svg width="138" height="125" x="913.58" y="-312.33" id="h1909057148" class="t"><rect height="40" width="138" class="th"></rect><text x="13" y="25" class="tht">Supplier</text><rect height="85" width="138" class="t-bg" y="40"></rect><text x="13" y="61" class="tf pk">id<tspan x="125" class="ty">int</tspan></text><path d="M7,14A2,2 0 0,1 5,12A2,2 0 0,1 7,10A2,2 0 0,1 9,12A2,2 0 0,1 7,14M12.65,10C11.83,7.67 9.61,6 7, 6A6, 6 0 0, 0 1, 12A6, 6 0 0, 0 7, 18C9.61, 18 11.83, 16.33 12.65, 14H17V18H21V14H23V10H12.65Z" class="i pk" transform="translate(92, 48) scale(0.65)"></path><text x="13" y="86" class="tf">name<tspan x="125" class="ty">string</tspan></text><text x="13" y="111" class="tf">cnpj<tspan x="125" class="ty">string(14)</tspan></text><path d="M22,18V22H18V19H15V16H12L9.74,13.74C9.19,13.91 8.61,14 8,14A6,6 0 0,1 2,8A6,6 0 0,1 8,2A6,6 0 0,1 14,8C14,8.61 13.91, 9.19 13.74, 9.74L22, 18M7, 5A2, 2 0 0, 0 5, 7A2, 2 0 0, 0 7, 9A2, 2 0 0, 0 9, 7A2, 2 0 0, 0 7, 5Z" class="i uq" transform="translate(56, 100.5) scale(0.5)"></path></svg><svg width="138" height="125" x="908.75" y="-137.5" id="h2270756638" class="t"><rect height="40" width="138" class="th"></rect><text x="13" y="25" class="tht">Store</text><rect height="85" width="138" class="t-bg" y="40"></rect><text x="13" y="61" class="tf pk">id<tspan x="125" class="ty">int</tspan></text><path d="M7,14A2,2 0 0,1 5,12A2,2 0 0,1 7,10A2,2 0 0,1 9,12A2,2 0 0,1 7,14M12.65,10C11.83,7.67 9.61,6 7, 6A6, 6 0 0, 0 1, 12A6, 6 0 0, 0 7, 18C9.61, 18 11.83, 16.33 12.65, 14H17V18H21V14H23V10H12.65Z" class="i pk" transform="translate(92, 48) scale(0.65)"></path><text x="13" y="86" class="tf">name<tspan x="125" class="ty">string</tspan></text><text x="13" y="111" class="tf">cnpj<tspan x="125" class="ty">string(14)</tspan></text><path d="M22,18V22H18V19H15V16H12L9.74,13.74C9.19,13.91 8.61,14 8,14A6,6 0 0,1 2,8A6,6 0 0,1 8,2A6,6 0 0,1 14,8C14,8.61 13.91, 9.19 13.74, 9.74L22, 18M7, 5A2, 2 0 0, 0 5, 7A2, 2 0 0, 0 7, 9A2, 2 0 0, 0 9, 7A2, 2 0 0, 0 7, 5Z" class="i uq" transform="translate(56, 100.5) scale(0.5)"></path></svg><svg width="130" height="125" x="910" y="300" id="h1304670300" class="t"><rect height="40" width="130" class="th"></rect><text x="13" y="25" class="tht">Customer</text><rect height="85" width="130" class="t-bg" y="40"></rect><text x="13" y="61" class="tf pk">id<tspan x="117" class="ty">int</tspan></text><path d="M7,14A2,2 0 0,1 5,12A2,2 0 0,1 7,10A2,2 0 0,1 9,12A2,2 0 0,1 7,14M12.65,10C11.83,7.67 9.61,6 7, 6A6, 6 0 0, 0 1, 12A6, 6 0 0, 0 7, 18C9.61, 18 11.83, 16.33 12.65, 14H17V18H21V14H23V10H12.65Z" class="i pk" transform="translate(84, 48) scale(0.65)"></path><text x="13" y="86" class="tf">name<tspan x="117" class="ty">string</tspan></text><text x="13" y="111" class="tf">cpf<tspan x="117" class="ty">string(11)</tspan></text><path d="M22,18V22H18V19H15V16H12L9.74,13.74C9.19,13.91 8.61,14 8,14A6,6 0 0,1 2,8A6,6 0 0,1 8,2A6,6 0 0,1 14,8C14,8.61 13.91, 9.19 13.74, 9.74L22, 18M7, 5A2, 2 0 0, 0 5, 7A2, 2 0 0, 0 7, 9A2, 2 0 0, 0 9, 7A2, 2 0 0, 0 7, 5Z" class="i uq" transform="translate(49, 100.5) scale(0.5)"></path></svg><svg width="125" height="150" x="1500.5" y="-102.25" id="h3119304962" class="t"><rect height="40" width="125" class="th"></rect><text x="13" y="25" class="tht">Product</text><rect height="110" width="125" class="t-bg" y="40"></rect><text x="13" y="61" class="tf pk">id<tspan x="112" class="ty">int</tspan></text><path d="M7,14A2,2 0 0,1 5,12A2,2 0 0,1 7,10A2,2 0 0,1 9,12A2,2 0 0,1 7,14M12.65,10C11.83,7.67 9.61,6 7, 6A6, 6 0 0, 0 1, 12A6, 6 0 0, 0 7, 18C9.61, 18 11.83, 16.33 12.65, 14H17V18H21V14H23V10H12.65Z" class="i pk" transform="translate(79, 48) scale(0.65)"></path><text x="13" y="86" class="tf">name<tspan x="112" class="ty">string</tspan></text><text x="13" y="111" class="tf">price<tspan x="112" class="ty">decimal</tspan></text><text x="13" y="136" class="tf">description<tspan x="112" class="ty">text</tspan></text></svg><svg width="162" height="225" x="897.08" y="47.56" id="h1606516778" class="t"><rect height="40" width="162" class="th"></rect><text x="13" y="25" class="tht">Sale</text><rect height="185" width="162" class="t-bg" y="40"></rect><text x="13" y="61" class="tf pk">id<tspan x="149" class="ty">int</tspan></text><path d="M7,14A2,2 0 0,1 5,12A2,2 0 0,1 7,10A2,2 0 0,1 9,12A2,2 0 0,1 7,14M12.65,10C11.83,7.67 9.61,6 7, 6A6, 6 0 0, 0 1, 12A6, 6 0 0, 0 7, 18C9.61, 18 11.83, 16.33 12.65, 14H17V18H21V14H23V10H12.65Z" class="i pk" transform="translate(116, 48) scale(0.65)"></path><text x="13" y="86" class="tf">invoice<tspan x="149" class="ty">int</tspan></text><path d="M22,18V22H18V19H15V16H12L9.74,13.74C9.19,13.91 8.61,14 8,14A6,6 0 0,1 2,8A6,6 0 0,1 8,2A6,6 0 0,1 14,8C14,8.61 13.91, 9.19 13.74, 9.74L22, 18M7, 5A2, 2 0 0, 0 5, 7A2, 2 0 0, 0 7, 9A2, 2 0 0, 0 9, 7A2, 2 0 0, 0 7, 5Z" class="i uq" transform="translate(120, 75.5) scale(0.5)"></path><text x="13" y="111" class="tf">finished_at<tspan x="149" class="ty">datetime</tspan></text><text x="13" y="136" class="tf">total_amount<tspan x="149" class="ty">decimal</tspan></text><text x="13" y="161" class="tf">finished<tspan x="149" class="ty">boolean</tspan></text><text x="13" y="186" class="tf fk">store_id<tspan x="149" class="ty">int</tspan></text><text x="13" y="211" class="tf fk">customer_id<tspan x="149" class="ty">int</tspan></text></svg><svg width="117" height="150" x="1214.08" y="-149.92" id="h56947198" class="t"><rect height="40" width="117" class="th"></rect><text x="13" y="25" class="tht">StoreProduct</text><rect height="110" width="117" class="t-bg" y="40"></rect><text x="13" y="61" class="tf pk">id<tspan x="104" class="ty">int</tspan></text><path d="M7,14A2,2 0 0,1 5,12A2,2 0 0,1 7,10A2,2 0 0,1 9,12A2,2 0 0,1 7,14M12.65,10C11.83,7.67 9.61,6 7, 6A6, 6 0 0, 0 1, 12A6, 6 0 0, 0 7, 18C9.61, 18 11.83, 16.33 12.65, 14H17V18H21V14H23V10H12.65Z" class="i pk" transform="translate(71, 48) scale(0.65)"></path><text x="13" y="86" class="tf fk">store_id<tspan x="104" class="ty">int</tspan></text><text x="13" y="111" class="tf fk">product_id<tspan x="104" class="ty">int</tspan></text><text x="13" y="136" class="tf">amount<tspan x="104" class="ty">int</tspan></text></svg><svg width="127" height="125" x="1205.75" y="-334" id="h1369060275" class="t"><rect height="40" width="127" class="th"></rect><text x="13" y="25" class="tht">ProductSupplier</text><rect height="85" width="127" class="t-bg" y="40"></rect><text x="13" y="61" class="tf pk">id<tspan x="114" class="ty">int</tspan></text><path d="M7,14A2,2 0 0,1 5,12A2,2 0 0,1 7,10A2,2 0 0,1 9,12A2,2 0 0,1 7,14M12.65,10C11.83,7.67 9.61,6 7, 6A6, 6 0 0, 0 1, 12A6, 6 0 0, 0 7, 18C9.61, 18 11.83, 16.33 12.65, 14H17V18H21V14H23V10H12.65Z" class="i pk" transform="translate(81, 48) scale(0.65)"></path><text x="13" y="86" class="tf fk">product_id<tspan x="114" class="ty">int</tspan></text><text x="13" y="111" class="tf fk">supplier_id<tspan x="114" class="ty">int</tspan></text></svg><svg width="117" height="150" x="1211.5" y="48.5" id="h3860667595" class="t"><rect height="40" width="117" class="th"></rect><text x="13" y="25" class="tht">SaleProduct</text><rect height="110" width="117" class="t-bg" y="40"></rect><text x="13" y="61" class="tf pk">id<tspan x="104" class="ty">int</tspan></text><path d="M7,14A2,2 0 0,1 5,12A2,2 0 0,1 7,10A2,2 0 0,1 9,12A2,2 0 0,1 7,14M12.65,10C11.83,7.67 9.61,6 7, 6A6, 6 0 0, 0 1, 12A6, 6 0 0, 0 7, 18C9.61, 18 11.83, 16.33 12.65, 14H17V18H21V14H23V10H12.65Z" class="i pk" transform="translate(71, 48) scale(0.65)"></path><text x="13" y="86" class="tf fk">sale_id<tspan x="104" class="ty">int</tspan></text><text x="13" y="111" class="tf fk">product_id<tspan x="104" class="ty">int</tspan></text><text x="13" y="136" class="tf">amount<tspan x="104" class="ty">int</tspan></text></svg></g></g></svg>